<svg  viewBox="0 0 48 19" fill="none" xmlns="http://www.w3.org/2000/svg" xmlns:xlink="http://www.w3.org/1999/xlink">
	
	<defs/>
	<path id="path" d="M42.45 8.77L37.68 0L22.95 0L27.7 8.77L42.45 8.77ZM19.16 9.11C20.25 10.04 22 10.2 23.69 10.2L26.64 10.2L31.42 19L19.25 19C17.7 19 16.17 18.95 14.66 18.59C13.13 18.2 11.82 17.58 10.58 16.64C7.99 14.77 6.57 12.21 5.09 9.47C3.87 7.26 2.66 5.03 1.47 2.8C0.98 1.89 0.49 0.97 0 0.06L13.67 0.06C13.74 0.18 14.23 1.1 14.83 2.21C15.63 3.69 16.44 5.17 17.25 6.64C17.77 7.58 18.26 8.4 19.16 9.11ZM33.27 19L28.49 10.18L43.2 10.18L48 19L33.27 19ZM67.68 3.12C68.04 3.48 68.48 3.66 69 3.66C69.5 3.66 69.93 3.48 70.3 3.12C70.65 2.77 70.82 2.33 70.82 1.82C70.82 1.32 70.65 0.89 70.3 0.54C69.94 0.17 69.51 -0.01 69 0C68.5 0 68.06 0.18 67.68 0.54C67.32 0.89 67.13 1.32 67.13 1.82C67.13 2.32 67.32 2.75 67.68 3.12ZM67.54 5.51L67.54 18.75L70.41 18.75L70.41 5.51L67.54 5.51ZM65.14 18.75L65.14 15.88L57 15.88L57 0.86L54 0.86L54 18.74L65.14 18.75ZM94.27 18.75L91.08 18.75L89.6 14.26L82.85 14.26L81.39 18.75L78.2 18.75L84.62 0.86L87.83 0.86L94.27 18.75ZM86.12 4.07L83.71 11.55L88.71 11.55L86.28 4.07L86.12 4.07ZM106.77 18.74L106.77 5.51L103.9 5.51L103.9 13.03C103.85 15.24 102.84 16.36 100.85 16.38C99.99 16.38 99.37 16.14 99.01 15.67C98.64 15.2 98.46 14.39 98.46 13.25L98.46 5.51L95.62 5.51L95.62 13.78C95.62 15.53 96.03 16.84 96.85 17.72C97.64 18.57 98.78 19 100.28 19C101.22 19 102.03 18.76 102.72 18.29C103.26 17.91 103.7 17.39 104.01 16.72L104.17 16.72L104.31 18.74L106.77 18.74ZM116.17 16.31L116.17 18.84C115.59 18.94 115.01 19 114.42 19C113.07 19 112.09 18.7 111.48 18.11C110.88 17.51 110.57 16.53 110.57 15.15L110.57 8.08L108.59 8.08L108.59 5.51L110.57 5.51L110.57 2.07L113.42 2.07L113.42 5.51L116.17 5.51L116.17 8.08L113.42 8.08L113.42 15.08C113.42 15.55 113.48 15.87 113.6 16.06C113.72 16.22 113.93 16.32 114.24 16.35C114.84 16.4 115.49 16.38 116.17 16.31ZM119.46 17.08C120.58 18.36 122.06 19 123.88 19C125.7 19 127.17 18.36 128.31 17.08C129.43 15.82 130 14.16 130 12.09C130 10.07 129.43 8.43 128.31 7.17C127.17 5.9 125.7 5.26 123.88 5.26C122.06 5.26 120.58 5.9 119.46 7.17C118.36 8.43 117.8 10.07 117.8 12.09C117.8 14.16 118.36 15.82 119.46 17.08ZM126.2 15.19C125.64 15.92 124.86 16.28 123.88 16.28C122.89 16.28 122.12 15.92 121.58 15.19C121.02 14.45 120.74 13.41 120.74 12.09C120.74 10.79 121.01 9.78 121.56 9.06C122.12 8.33 122.89 7.97 123.88 7.97C124.88 7.97 125.66 8.33 126.22 9.06C126.78 9.79 127.06 10.8 127.06 12.09C127.06 13.41 126.77 14.45 126.2 15.19Z" fill="#000000" fill-opacity="1.000000" fill-rule="evenodd"/>
</svg>
